<svg width="307" height="54" viewBox="0 0 307 54" fill="none" xmlns="http://www.w3.org/2000/svg">
<path d="M8.00259 7.85645H0V0.495605H24.7811V7.85645H16.7785V29.1975H8.00259V7.85645Z" fill="#FF0F00"/>
<path d="M26.1472 0.495605H50.209V7.85645H34.9411V11.4374H50.209V18.2738H34.9411V21.8366H50.209V29.1975H26.1472V0.495605Z" fill="#FF0F00"/>
<path d="M51.6843 0.495605H66.071C75.5842 0.495605 78.9471 7.56707 78.9471 14.8013C78.9471 23.609 74.3074 29.2698 64.3626 29.2698H51.6843V0.495605ZM60.4782 21.8366H63.913C69.3979 21.8366 70.1892 17.3875 70.1892 14.6024C70.2651 13.6743 70.137 12.7408 69.8141 11.8681C69.4911 10.9953 68.9812 10.2047 68.3205 9.55236C67.6598 8.89996 66.8644 8.40175 65.9909 8.09304C65.1173 7.78433 64.1869 7.67268 63.2656 7.76601H60.4782V21.8366Z" fill="#FF0F00"/>
<path d="M91.626 18.1467L88.9464 13.6615L86.3209 18.1467H79.8828L85.9972 9.10392L80.1166 0.440918H86.5546L88.9464 4.7272L91.3922 0.440918H97.8482L91.9497 9.10392L98.064 18.1467H91.626Z" fill="#FF0F00"/>
<path d="M105.871 0.748047H102.041V28.9073H105.871V0.748047Z" fill="white"/>
<path d="M116.715 0.748047H112.885V28.9073H116.715V0.748047Z" fill="white"/>
<path d="M143.224 0.748047V4.09388H133.783V28.8892H129.952V4.09388H120.529V0.748047H143.224Z" fill="white"/>
<path d="M165.772 1.54403C167.167 2.32952 168.353 3.44153 169.229 4.78584C170.106 6.13015 170.647 7.66714 170.808 9.26658H167.049C166.906 8.36704 166.586 7.50529 166.108 6.73195C165.629 5.9586 165.001 5.28927 164.262 4.76327C162.648 3.75239 160.766 3.2603 158.867 3.35259C157.653 3.34397 156.452 3.60352 155.349 4.11291C154.246 4.6223 153.267 5.3691 152.483 6.30054C150.577 8.79176 149.649 11.9009 149.875 15.0359C149.747 17.9185 150.5 20.7713 152.033 23.2106C152.836 24.2907 153.9 25.1466 155.125 25.6973C156.349 26.248 157.693 26.4752 159.029 26.3575C161.283 26.4375 163.484 25.6483 165.179 24.151C166.08 23.191 166.768 22.05 167.199 20.8031C167.63 19.5562 167.793 18.2317 167.679 16.9168H158.975V13.8242H171.257V28.9437H168.83L167.912 25.3266C166.948 26.4763 165.814 27.4705 164.55 28.2745C162.627 29.2827 160.476 29.7689 158.309 29.6852C155.194 29.7358 152.18 28.5762 149.893 26.4479C147.201 23.3819 145.819 19.3729 146.045 15.2891C145.831 11.1789 147.174 7.14002 149.803 3.98558C150.96 2.68146 152.387 1.64905 153.985 0.961459C155.582 0.273873 157.31 -0.0520583 159.047 0.00675262C161.381 -0.0564085 163.694 0.472247 165.772 1.54403Z" fill="white"/>
<path d="M180.464 8.36328V21.9817C180.43 22.8638 180.596 23.7421 180.95 24.5499C181.258 25.1537 181.741 25.6496 182.335 25.9724C182.929 26.2952 183.606 26.4298 184.277 26.3584C185.31 26.4238 186.337 26.1435 187.195 25.5612C188.054 24.979 188.697 24.1274 189.024 23.1392C189.535 21.6142 189.766 20.0088 189.708 18.4008V8.36328H193.143V28.9447H189.906V25.9244C189.481 26.6744 188.927 27.342 188.269 27.8957C186.953 28.9792 185.294 29.5505 183.593 29.5053C182.445 29.6346 181.283 29.4268 180.249 28.9069C179.215 28.387 178.353 27.5773 177.767 26.5755C177.152 25.2596 176.862 23.8141 176.922 22.3615V8.36328H180.464Z" fill="white"/>
<path d="M200.336 8.36328L204.256 24.5318L208.231 8.36328H212.079L216.089 24.4414L220.261 8.36328H223.696L217.762 28.8904H214.201L210.047 12.9932L206.037 28.8904H202.458L196.577 8.36328H200.336Z" fill="white"/>
<path d="M237.867 16.4647C238.196 16.4604 238.518 16.3654 238.797 16.19C239.076 16.0146 239.302 15.7656 239.45 15.47C239.614 15.0504 239.688 14.6003 239.665 14.1498C239.706 13.6492 239.613 13.1467 239.394 12.6949C239.176 12.2431 238.841 11.8586 238.425 11.5816C237.326 10.9747 236.078 10.6985 234.828 10.7858C234.124 10.7095 233.412 10.8006 232.75 11.052C232.088 11.3033 231.494 11.7078 231.015 12.2327C230.54 12.9554 230.261 13.7911 230.206 14.6562H227.005C226.924 13.6357 227.106 12.6114 227.534 11.6828C227.963 10.7543 228.623 9.95304 229.451 9.35708C231.07 8.34941 232.942 7.82855 234.846 7.85597C236.884 7.77001 238.907 8.25193 240.69 9.24856C241.413 9.6928 242.003 10.3262 242.396 11.0812C242.788 11.8362 242.97 12.6843 242.92 13.5349V25.3267C242.905 25.6311 242.98 25.9333 243.136 26.1948C243.251 26.3199 243.395 26.4149 243.555 26.4716C243.715 26.5284 243.886 26.5451 244.053 26.5203H244.575L245.186 26.4299V28.9438C244.787 29.0727 244.378 29.1694 243.963 29.2332C243.58 29.2567 243.196 29.2567 242.812 29.2332C242.311 29.2719 241.807 29.1749 241.355 28.9523C240.903 28.7297 240.518 28.3896 240.241 27.9672C239.931 27.4087 239.736 26.7939 239.665 26.1586C238.841 27.164 237.811 27.9783 236.644 28.5459C235.306 29.2238 233.826 29.571 232.328 29.5587C231.474 29.585 230.623 29.4384 229.826 29.1277C229.029 28.8171 228.302 28.3486 227.689 27.7501C227.102 27.1983 226.639 26.5278 226.329 25.7828C226.019 25.0377 225.869 24.235 225.89 23.4277C225.844 22.6011 225.981 21.7745 226.292 21.0081C226.603 20.2416 227.08 19.5545 227.689 18.9967C229.012 17.8943 230.635 17.2198 232.346 17.0615L237.867 16.4647ZM230.674 25.7788C231.405 26.3598 232.314 26.6667 233.245 26.6469C234.494 26.655 235.727 26.3637 236.842 25.7969C237.727 25.4203 238.476 24.7796 238.987 23.9613C239.499 23.143 239.748 22.1866 239.701 21.2212V18.4541C239.199 18.7596 238.653 18.9853 238.083 19.1233C237.445 19.2992 236.796 19.4321 236.141 19.5212L234.073 19.7744C233.098 19.8702 232.148 20.1396 231.267 20.5701C230.76 20.8451 230.341 21.2602 230.061 21.7665C229.781 22.2728 229.65 22.8492 229.685 23.4277C229.665 23.8777 229.752 24.326 229.94 24.7351C230.128 25.1441 230.41 25.502 230.764 25.7788" fill="white"/>
<path d="M248.622 0.640137H252.056V11.1479C252.676 10.3389 253.416 9.63121 254.25 9.04994C255.491 8.28108 256.93 7.89733 258.387 7.94672C259.585 7.8147 260.796 8.04111 261.868 8.59762C262.939 9.15413 263.824 10.016 264.411 11.0755C265.049 12.5693 265.338 14.1903 265.256 15.814V28.9441H261.66V15.9586C261.75 14.8385 261.584 13.7124 261.174 12.6671C260.811 12.0785 260.287 11.6071 259.666 11.3089C259.044 11.0108 258.351 10.8984 257.667 10.9851C256.241 10.9836 254.864 11.5117 253.801 12.4681C252.632 13.4447 252.002 15.3076 252.002 18.0385V28.8898H248.568L248.622 0.640137Z" fill="white"/>
<path d="M281.28 16.4647C281.609 16.4604 281.93 16.3654 282.209 16.19C282.488 16.0146 282.714 15.7656 282.862 15.47C283.027 15.0504 283.101 14.6003 283.078 14.1498C283.119 13.6492 283.025 13.1467 282.807 12.6949C282.589 12.2431 282.254 11.8586 281.837 11.5816C280.769 11.0232 279.568 10.7728 278.366 10.8582C277.663 10.7818 276.951 10.873 276.289 11.1243C275.626 11.3757 275.032 11.7801 274.554 12.305C274.078 13.0278 273.799 13.8634 273.745 14.7285H270.454C270.367 13.6896 270.554 12.6462 270.996 11.7032C271.438 10.7602 272.12 9.95096 272.971 9.35708C274.591 8.34941 276.463 7.82855 278.366 7.85597C280.405 7.77001 282.428 8.25193 284.211 9.24856C284.934 9.6928 285.523 10.3262 285.916 11.0812C286.309 11.8362 286.49 12.6843 286.441 13.5349V25.3267C286.426 25.6311 286.501 25.9333 286.657 26.1948C286.772 26.3199 286.916 26.4149 287.075 26.4716C287.235 26.5284 287.406 26.5451 287.574 26.5203H288.095L288.707 26.4299V28.9438C288.307 29.0707 287.898 29.1675 287.484 29.2331C287.101 29.2562 286.716 29.2562 286.333 29.2331C285.831 29.2719 285.328 29.1749 284.876 28.9523C284.424 28.7297 284.039 28.3896 283.761 27.9672C283.452 27.4087 283.256 26.7939 283.186 26.1586C282.364 27.1705 281.333 27.9912 280.165 28.564C278.827 29.2419 277.347 29.5891 275.849 29.5768C274.992 29.6014 274.139 29.4542 273.339 29.1436C272.539 28.8331 271.809 28.3656 271.191 27.7682C270.613 27.2242 270.153 26.5657 269.841 25.8343C269.528 25.1028 269.37 24.3142 269.375 23.5181C269.328 22.6915 269.466 21.865 269.777 21.0985C270.088 20.332 270.565 19.6449 271.173 19.0871C272.491 17.9881 274.108 17.3137 275.813 17.152L281.28 16.4647ZM274.086 25.7788C274.817 26.3598 275.727 26.6667 276.658 26.6469C277.877 26.6408 279.077 26.3498 280.165 25.7969C281.05 25.4203 281.799 24.7796 282.31 23.9613C282.821 23.143 283.071 22.1866 283.024 21.2212V18.4541C282.522 18.7596 281.976 18.9853 281.406 19.1233C280.767 19.2957 280.118 19.4286 279.463 19.5212L277.395 19.7744C276.421 19.8702 275.471 20.1396 274.59 20.5701C274.061 20.8463 273.625 21.2735 273.337 21.798C273.049 22.3225 272.922 22.921 272.971 23.5181C272.952 23.9682 273.039 24.4165 273.227 24.8255C273.415 25.2346 273.697 25.5924 274.05 25.8692" fill="white"/>
<path d="M292.754 2.62939H296.225V8.36253H299.48V11.1839H296.225V24.5853C296.193 24.8701 296.246 25.158 296.378 25.4123C296.509 25.6667 296.712 25.8761 296.962 26.0141C297.383 26.1901 297.838 26.2644 298.293 26.2311H298.814H299.48V28.9439C299.079 29.0596 298.67 29.1443 298.257 29.1971C297.796 29.2266 297.333 29.2266 296.872 29.1971C296.271 29.2725 295.661 29.1999 295.094 28.9857C294.527 28.7715 294.02 28.422 293.617 27.9673C293.001 27.012 292.699 25.8857 292.754 24.7481V11.1839H290.002V8.36253H292.754V2.62939Z" fill="white"/>
<path d="M302.878 0.730469H306.367V4.63696H302.878V0.730469ZM302.878 8.45302H306.367V28.944H302.878V8.45302Z" fill="white"/>
<path d="M4.31167 45.8081L1.13241 41.4546H4.1638L5.86433 43.8516L7.54638 41.4546H10.4853L7.30609 45.7728L10.8735 50.655H7.84213L5.82736 47.7645L3.8126 50.655H0.83667L4.31167 45.8081Z" fill="#FF0F00"/>
<path d="M21.7461 45.0735H13.3821V43.1279H21.7461V45.0735ZM21.7461 48.9828H13.3821V47.0191H21.7461V48.9828Z" fill="white"/>
<path d="M29.2734 40.1608H26.7642V38.1104H29.2734V40.1608ZM26.7642 41.5683H29.2734V50.6564H26.7642V41.5683Z" fill="white"/>
<path d="M30.1111 40.8793H32.4592V42.2437C32.7489 41.7377 33.1536 41.3221 33.6341 41.0372C34.1147 40.7523 34.6546 40.6078 35.2015 40.6177C37.8067 40.6177 38.4751 42.225 38.4751 44.6359V50.654H36.0585V45.0471C36.0585 43.4398 35.63 42.6548 34.4816 42.6548C33.3333 42.6548 32.5792 43.4585 32.5792 45.4583V50.654H30.1111V40.8793Z" fill="white"/>
<path d="M47.0729 49.2708C46.7819 49.7214 46.3745 50.087 45.8926 50.3296C45.4107 50.5723 44.872 50.6832 44.3322 50.6509C41.4881 50.5828 40.1781 48.3336 40.1781 45.88C40.1084 45.3126 40.1589 44.7371 40.3263 44.19C40.4936 43.6429 40.7742 43.1362 41.1503 42.702C41.5263 42.2678 41.9896 41.9156 42.5106 41.6678C43.0317 41.42 43.5992 41.282 44.177 41.2625C44.7 41.245 45.2191 41.3556 45.6883 41.5845C46.1575 41.8135 46.5621 42.1536 46.866 42.5745V38.1104H49.3481V50.4124H47.0729V49.2708ZM44.901 43.1027C43.2807 43.1027 42.7291 44.4829 42.7291 45.9482C42.7291 47.4135 43.2807 48.8789 44.8148 48.8789C46.3489 48.8789 46.9522 47.4647 46.9522 45.9993C46.9522 44.534 46.4179 43.1709 44.8148 43.1709" fill="white"/>
<path d="M52.7185 46.3306C52.7185 47.9862 53.5827 48.7502 54.9936 48.7502C55.407 48.7697 55.8168 48.6626 56.1714 48.4425C56.526 48.2224 56.8096 47.8991 56.9866 47.5131H59.2088C58.954 48.4682 58.3856 49.3024 57.6007 49.8731C56.8158 50.4438 55.8631 50.7157 54.9054 50.6423C54.2671 50.6724 53.6298 50.5625 53.0358 50.3198C52.4417 50.077 51.9044 49.707 51.4592 49.2341C51.0141 48.7612 50.6714 48.1962 50.4537 47.5766C50.236 46.9569 50.1483 46.2966 50.1964 45.6393C50.1623 44.9846 50.2595 44.3296 50.482 43.7153C50.7045 43.1011 51.0475 42.5408 51.4895 42.0696C51.9314 41.5983 52.4629 41.2261 53.0507 40.9764C53.6385 40.7267 54.2699 40.6047 54.9054 40.6182C58.0448 40.6182 59.5615 43.3289 59.3675 46.2579L52.7185 46.3306ZM56.8455 44.6751C56.6162 43.3471 56.0518 42.6558 54.8349 42.6558C54.5665 42.6411 54.2979 42.6821 54.0451 42.7763C53.7924 42.8705 53.5605 43.016 53.3631 43.2043C53.1658 43.3926 53.0071 43.6197 52.8964 43.8724C52.7857 44.125 52.7252 44.398 52.7185 44.6751H56.8455Z" fill="white"/>
<path d="M60.2202 40.8647H62.5911V42.0302C62.872 41.5757 63.269 41.2053 63.7408 40.9574C64.2125 40.7096 64.7418 40.5935 65.2734 40.6212C68.1115 40.6212 69.3921 42.9174 69.3921 45.5093C69.4593 46.0844 69.4077 46.6673 69.2405 47.2215C69.0734 47.7757 68.7943 48.2892 68.4208 48.73C68.0472 49.1709 67.5871 49.5295 67.0694 49.7834C66.5517 50.0374 65.9874 50.1813 65.4118 50.206C64.8843 50.217 64.3621 50.0973 63.8913 49.8577C63.4206 49.6181 63.0156 49.2657 62.7122 48.8318V53.1632H60.2202V40.8647ZM66.9347 45.4397C66.9347 43.9959 66.3636 42.4999 64.7715 42.4999C63.1794 42.4999 62.6257 43.9611 62.6257 45.4397C62.6257 46.9183 63.1794 48.3969 64.7888 48.3969C66.3982 48.3969 66.9347 47.0053 66.9347 45.5267" fill="white"/>
<path d="M72.8945 46.3269C72.8945 47.9814 73.7397 48.745 75.1483 48.745C75.5615 48.7668 75.9716 48.6609 76.3261 48.4406C76.6806 48.2204 76.9633 47.8959 77.1381 47.5087H79.3743C79.1107 48.4792 78.5258 49.3237 77.7215 49.895C76.9172 50.4664 75.9444 50.7285 74.9722 50.6357C74.335 50.6659 73.6987 50.5561 73.1056 50.3135C72.5125 50.0709 71.976 49.7011 71.5316 49.2285C71.0872 48.7559 70.7451 48.1913 70.5277 47.572C70.3104 46.9527 70.2228 46.2929 70.2708 45.6361C70.2368 44.9817 70.3339 44.3272 70.556 43.7133C70.7781 43.0995 71.1205 42.5396 71.5618 42.0686C72.0031 41.5976 72.5337 41.2258 73.1205 40.9762C73.7073 40.7266 74.3377 40.6047 74.9722 40.6182C78.1065 40.6182 79.6208 43.3271 79.4447 46.2542L72.8945 46.3269ZM76.9972 44.6725C76.7683 43.3453 76.2224 42.6544 74.9898 42.6544C74.7227 42.6397 74.4555 42.6808 74.2041 42.7751C73.9527 42.8695 73.7223 43.0152 73.5267 43.2036C73.3311 43.392 73.1743 43.6192 73.0657 43.8716C72.9571 44.1239 72.8988 44.3963 72.8945 44.6725H76.9972Z" fill="white"/>
<path d="M80.2942 40.8793H82.6299V42.2437C82.9202 41.7377 83.3258 41.3221 83.8073 41.0372C84.2888 40.7523 84.8299 40.6078 85.3779 40.6177C87.9884 40.6177 88.6582 42.225 88.6582 44.6359V50.654H86.2366V45.0471C86.2366 43.4398 85.8072 42.6548 84.6565 42.6548C83.5058 42.6548 82.7502 43.4585 82.7502 45.4583V50.654H80.2942V40.8793Z" fill="white"/>
<path d="M96.534 49.2708C96.2677 49.7214 95.8946 50.087 95.4534 50.3296C95.0123 50.5723 94.519 50.6832 94.0248 50.6509C91.5314 50.6509 90.332 48.3336 90.332 45.88C90.332 43.4265 91.5472 41.2625 93.9775 41.2625C94.4562 41.245 94.9316 41.3556 95.3611 41.5845C95.7906 41.8135 96.1611 42.1536 96.4394 42.5745V38.1104H98.6961V50.4124H96.534V49.2708ZM94.5456 43.1027C93.0622 43.1027 92.5572 44.4829 92.5572 45.9482C92.5572 47.4135 93.1569 48.8789 94.5456 48.8789C95.9344 48.8789 96.5025 47.4647 96.5025 45.9993C96.5025 44.534 96.0133 43.1709 94.5456 43.1709" fill="white"/>
<path d="M102.901 46.3311C102.901 47.9867 103.763 48.7509 105.172 48.7509C105.585 48.7703 105.994 48.6633 106.348 48.4431C106.702 48.223 106.985 47.8996 107.162 47.5137H109.398C109.137 48.4685 108.566 49.3011 107.78 49.8712C106.994 50.4412 106.042 50.7138 105.084 50.643C104.447 50.6732 103.811 50.5633 103.217 50.3205C102.624 50.0778 102.088 49.7077 101.643 49.2348C101.199 48.7618 100.857 48.1968 100.64 47.5771C100.422 46.9574 100.335 46.297 100.383 45.6397C100.349 44.9849 100.446 44.3299 100.668 43.7156C100.89 43.1013 101.232 42.541 101.674 42.0697C102.115 41.5984 102.646 41.2262 103.232 40.9764C103.819 40.7267 104.45 40.6047 105.084 40.6182C108.218 40.6182 109.733 43.3291 109.557 46.2583L102.901 46.3311ZM107.021 44.6754C106.792 43.3473 106.246 42.6559 105.014 42.6559C104.746 42.6437 104.479 42.6864 104.228 42.7816C103.976 42.8767 103.746 43.0224 103.549 43.2102C103.353 43.398 103.194 43.6242 103.083 43.8757C102.972 44.1272 102.91 44.399 102.901 44.6754H107.021Z" fill="white"/>
<path d="M110.405 40.8793H112.753V42.2437C113.043 41.7377 113.448 41.3221 113.928 41.0372C114.409 40.7523 114.949 40.6078 115.496 40.6177C118.101 40.6177 118.769 42.225 118.769 44.6359V50.654H116.353V45.0471C116.353 43.4398 115.924 42.6548 114.776 42.6548C113.627 42.6548 112.873 43.4585 112.873 45.4583V50.654H110.405V40.8793Z" fill="white"/>
<path d="M123.652 40.9483H125.46V42.7559H123.652V47.4377C123.652 48.3053 123.859 48.5223 124.685 48.5223C124.943 48.5483 125.203 48.5483 125.46 48.5223V50.5649C124.981 50.6326 124.497 50.6628 124.014 50.6553C122.498 50.6553 121.173 50.2757 121.173 48.3957V42.6836H119.605V40.876H121.104V38.1104H123.583L123.652 40.9483Z" fill="white"/>
<path d="M128.806 38.1104H126.297V50.6564H128.806V38.1104Z" fill="white"/>
<path d="M134.629 51.1802C134.461 51.8089 134.085 52.3531 133.568 52.7132C133.051 53.0734 132.429 53.2255 131.815 53.1418C131.354 53.1422 130.895 53.1092 130.439 53.0429V51.0978C130.875 51.1509 131.313 51.1784 131.752 51.1802C131.921 51.1522 132.081 51.0818 132.218 50.9749C132.356 50.868 132.467 50.7278 132.542 50.5661C132.617 50.4044 132.654 50.2259 132.65 50.0459C132.646 49.8658 132.601 49.6895 132.518 49.5318L129.642 41.4546H132.049L133.894 47.3559L135.676 41.4546H138.006L134.629 51.1802Z" fill="white"/>
<path d="M148.033 40.6259C148.71 40.5856 149.388 40.6857 150.022 40.9195C150.655 41.1534 151.229 41.5154 151.704 41.9812C152.179 42.447 152.545 43.0057 152.777 43.6193C153.008 44.233 153.1 44.8873 153.045 45.538C153.087 46.1949 152.988 46.8529 152.756 47.4717C152.523 48.0905 152.161 48.657 151.692 49.1362C151.224 49.6154 150.658 49.9973 150.03 50.2583C149.403 50.5194 148.726 50.654 148.042 50.654C147.358 50.654 146.682 50.5194 146.054 50.2583C145.426 49.9973 144.86 49.6154 144.392 49.1362C143.923 48.657 143.561 48.0905 143.329 47.4717C143.096 46.8529 142.997 46.1949 143.039 45.538C142.985 44.8889 143.076 44.2362 143.306 43.6239C143.537 43.0115 143.901 42.4538 144.374 41.9883C144.847 41.5228 145.419 41.1604 146.05 40.9253C146.681 40.6903 147.357 40.5882 148.033 40.6259ZM148.033 48.5102C149.882 48.5102 150.382 47.0152 150.382 45.538C150.382 44.0608 149.845 42.548 148.033 42.548C146.22 42.548 145.684 44.043 145.684 45.538C145.684 47.033 146.239 48.5814 148.033 48.5814" fill="white"/>
<path d="M153.062 40.8449H155.115V42.7204C155.326 42.1077 155.675 41.5848 156.119 41.2153C156.563 40.8458 157.083 40.6455 157.617 40.6386C157.77 40.6101 157.927 40.6101 158.081 40.6386V43.133C157.824 43.0694 157.563 43.038 157.302 43.0393C155.804 43.0393 155.19 44.4647 155.19 46.1902V50.654H153.062V40.8449Z" fill="white"/>
<path d="M168.117 49.7787C168.117 51.3433 167.567 53.9996 163.307 53.9996C161.532 53.9996 159.331 53.1081 159.207 50.9431H161.745C161.86 51.3561 162.114 51.7141 162.461 51.9538C162.809 52.1936 163.228 52.2995 163.644 52.253C165.064 52.253 165.703 51.2524 165.686 49.8878V48.6325C165.389 49.1081 164.975 49.4949 164.486 49.7537C163.996 50.0125 163.449 50.1341 162.899 50.1062C160.13 50.1062 158.941 47.9411 158.941 45.3394C158.879 44.7569 158.936 44.1676 159.107 43.6085C159.278 43.0494 159.56 42.5326 159.935 42.0902C160.31 41.6479 160.769 41.2897 161.286 41.0379C161.802 40.7862 162.363 40.6464 162.934 40.6272C163.488 40.5801 164.044 40.6996 164.532 40.9711C165.021 41.2425 165.422 41.6541 165.686 42.1555V40.8819H168.117V49.7787ZM165.686 45.5213C165.686 43.9749 165.171 42.5921 163.52 42.5921C161.869 42.5921 161.461 43.8839 161.461 45.2848C161.461 46.6857 161.958 48.1412 163.52 48.1412C163.835 48.1287 164.144 48.0491 164.427 47.9077C164.71 47.7662 164.961 47.566 165.165 47.3196C165.369 47.0732 165.52 46.7861 165.61 46.4765C165.699 46.167 165.725 45.8417 165.686 45.5213Z" fill="white"/>
<path d="M169.217 43.803C169.348 41.3454 171.333 40.6172 173.251 40.6172C175.17 40.6172 177.023 41.0359 177.023 43.3115V48.2631C176.979 48.9826 177.08 49.704 177.319 50.3749H174.924C174.837 50.0799 174.782 49.7743 174.76 49.4646C174.377 49.8695 173.923 50.1834 173.427 50.3868C172.931 50.5903 172.402 50.6791 171.874 50.6479C170.234 50.6479 168.955 49.7377 168.955 47.7898C168.955 45.8419 170.414 45.1137 171.874 44.8953C173.333 44.6768 174.662 44.7132 174.662 43.6392C174.662 42.5651 173.973 42.3648 173.137 42.3648C172.3 42.3648 171.661 42.7653 171.497 43.803H169.217ZM174.662 45.7327C174.054 46.0688 173.389 46.2551 172.71 46.2788C171.972 46.4427 171.316 46.7157 171.316 47.6806C171.316 48.6454 171.989 48.9003 172.759 48.9003C173.023 48.9277 173.288 48.8887 173.536 48.7863C173.783 48.6839 174.007 48.5207 174.19 48.3089C174.373 48.0971 174.51 47.8422 174.592 47.5632C174.674 47.2841 174.698 46.9882 174.662 46.6975V45.7327Z" fill="white"/>
<path d="M179.042 40.8793H181.363V42.2437C181.652 41.7377 182.055 41.3221 182.534 41.0372C183.012 40.7523 183.55 40.6078 184.094 40.6177C186.689 40.6177 187.355 42.225 187.355 44.6359V50.654H184.897V45.0471C184.897 43.4398 184.47 42.6548 183.326 42.6548C182.183 42.6548 181.432 43.4585 181.432 45.4583V50.654H178.991L179.042 40.8793Z" fill="white"/>
<path d="M190.699 40.1608H188.19V38.1104H190.699V40.1608ZM188.19 41.5683H190.699V50.6564H188.19V41.5683Z" fill="white"/>
<path d="M192.373 48.7515L196.638 43.3581H192.686V41.4546H199.602V43.3581L195.337 48.7515H199.9V50.655H192.373V48.7515Z" fill="white"/>
<path d="M203.214 46.3336C203.214 47.99 204.059 48.7545 205.468 48.7545C205.881 48.7764 206.291 48.6703 206.646 48.4498C207 48.2293 207.283 47.9044 207.458 47.5168H209.694C209.435 48.4591 208.874 49.2825 208.103 49.8515C207.332 50.4205 206.396 50.7012 205.45 50.6475C204.813 50.6778 204.177 50.5678 203.584 50.3249C202.991 50.082 202.454 49.7118 202.01 49.2386C201.565 48.7655 201.223 48.2002 201.006 47.5802C200.788 46.9602 200.701 46.2996 200.749 45.642C200.715 44.9869 200.812 44.3315 201.034 43.717C201.256 43.1024 201.599 42.5419 202.04 42.0703C202.481 41.5988 203.012 41.2265 203.599 40.9766C204.185 40.7267 204.816 40.6047 205.45 40.6182C208.585 40.6182 210.099 43.3303 209.923 46.2608L203.214 46.3336ZM207.317 44.6773C207.088 43.3485 206.542 42.6568 205.309 42.6568C205.042 42.6421 204.775 42.6832 204.524 42.7777C204.272 42.8722 204.042 43.0181 203.846 43.2067C203.651 43.3953 203.494 43.6227 203.385 43.8754C203.277 44.1281 203.218 44.4008 203.214 44.6773H207.317Z" fill="white"/>
<path d="M217.608 49.2708C217.317 49.7214 216.908 50.087 216.425 50.3296C215.943 50.5723 215.403 50.6832 214.862 50.6509C212.134 50.6509 210.804 48.3336 210.804 45.88C210.734 45.3126 210.785 44.7371 210.952 44.19C211.12 43.6429 211.401 43.1362 211.778 42.702C212.155 42.2678 212.619 41.9156 213.141 41.6678C213.663 41.42 214.231 41.282 214.81 41.2625C215.334 41.245 215.854 41.3556 216.324 41.5845C216.794 41.8135 217.2 42.1536 217.504 42.5745V38.1104H219.974V50.4124H217.625L217.608 49.2708ZM215.432 43.1027C213.809 43.1027 213.256 44.4829 213.256 45.9482C213.256 47.4135 213.826 48.8789 215.432 48.8789C217.038 48.8789 217.573 47.4647 217.573 45.9993C217.573 44.534 217.038 43.1709 215.432 43.1709" fill="white"/>
<path d="M228.966 40.4247H224.992V38.1104H235.865V40.4247H231.891V50.6564H228.966V40.4247Z" fill="white"/>
<path d="M236.702 38.1104H245.768V40.4247H239.371V43.1218H245.248V45.2621H239.371V48.3421H245.902V50.6564H236.702V38.1104Z" fill="white"/>
<path d="M246.739 38.1104H252.048C255.23 38.1104 257.613 40.1463 257.613 44.3225C257.613 47.9593 255.792 50.6564 252.048 50.6564H246.739V38.1104ZM249.445 48.3421H251.844C253.41 48.3421 254.907 47.3676 254.907 44.5835C254.907 41.7993 254.056 40.4073 251.317 40.4073H249.445V48.3421Z" fill="white"/>
<path d="M266.015 46.3305C266.015 47.986 266.86 48.75 268.269 48.75C268.684 48.7707 269.096 48.6644 269.453 48.4444C269.81 48.2243 270.097 47.9003 270.276 47.513H272.495C272.237 48.4695 271.666 49.304 270.88 49.8746C270.093 50.4451 269.139 50.7163 268.181 50.642C267.544 50.6722 266.907 50.5623 266.314 50.3195C265.721 50.0768 265.185 49.7067 264.74 49.2339C264.296 48.761 263.954 48.196 263.736 47.5764C263.519 46.9567 263.432 46.2964 263.48 45.6392C263.446 44.9844 263.543 44.3295 263.765 43.7153C263.987 43.101 264.329 42.5408 264.771 42.0695C265.212 41.5983 265.742 41.2261 266.329 40.9764C266.916 40.7267 267.546 40.6047 268.181 40.6182C271.315 40.6182 272.83 43.3288 272.653 46.2577L266.015 46.3305ZM270.118 44.675C269.889 43.347 269.343 42.6557 268.111 42.6557C267.843 42.641 267.576 42.6821 267.325 42.7765C267.073 42.8709 266.843 43.0167 266.647 43.2052C266.452 43.3937 266.295 43.621 266.186 43.8736C266.078 44.1261 266.02 44.3987 266.015 44.675H270.118Z" fill="white"/>
<path d="M278.162 50.655H275.569L272.667 41.4546H275.115L276.898 47.7468H276.931L278.714 41.4546H281.032L278.162 50.655Z" fill="white"/>
<path d="M283.579 46.3299C283.579 47.9852 284.442 48.7491 285.833 48.7491C286.248 48.7698 286.66 48.6635 287.017 48.4435C287.374 48.2235 287.66 47.8995 287.84 47.5122H290.059C289.804 48.4704 289.234 49.307 288.446 49.8779C287.659 50.4489 286.704 50.7187 285.745 50.6409C285.107 50.6711 284.471 50.5612 283.878 50.3185C283.285 50.0758 282.748 49.7058 282.304 49.2329C281.86 48.7601 281.518 48.1952 281.3 47.5756C281.083 46.956 280.995 46.2958 281.043 45.6386C281.009 44.984 281.106 44.3291 281.328 43.7149C281.551 43.1008 281.893 42.5406 282.334 42.0694C282.776 41.5982 283.306 41.2261 283.893 40.9764C284.48 40.7267 285.11 40.6047 285.745 40.6182C288.879 40.6182 290.393 43.3285 290.217 46.2571L283.579 46.3299ZM287.699 44.6746C287.453 43.3467 286.907 42.6555 285.674 42.6555C285.407 42.6408 285.14 42.6818 284.889 42.7763C284.637 42.8707 284.407 43.0165 284.211 43.205C284.016 43.3934 283.859 43.6207 283.75 43.8732C283.641 44.1257 283.583 44.3983 283.579 44.6746H287.699Z" fill="white"/>
<path d="M291.119 40.8792H293.441V42.2435C293.73 41.7389 294.134 41.3242 294.612 41.0395C295.09 40.7547 295.628 40.6094 296.172 40.6175C298.784 40.6175 299.432 42.2248 299.432 44.6359V50.654H296.991V45.047C296.991 43.4397 296.547 42.6547 295.421 42.6547C294.294 42.6547 293.509 43.4584 293.509 45.4582V50.654H291.068L291.119 40.8792Z" fill="white"/>
<path d="M304.295 40.9482H306.037V42.7558H304.295V47.4375C304.295 48.3051 304.504 48.522 305.358 48.522C305.613 48.5488 305.87 48.5488 306.125 48.522V50.5646C305.64 50.6334 305.15 50.6636 304.661 50.6549C303.127 50.6549 301.786 50.2754 301.786 48.3955V42.6835H300.27V40.8759H301.786V38.1104H304.295V40.9482Z" fill="white"/>
</svg>
